<?xml version="1.0"?>
<svg width="512" height="512" xmlns="http://www.w3.org/2000/svg" xmlns:svg="http://www.w3.org/2000/svg">
 <g class="layer">
  <title>Layer 1</title>
  <g id="svg_1">
   <g id="svg_2">
    <path d="m352,0l-192,0c-88.352,0 -160,71.648 -160,160l0,192c0,88.352 71.648,160 160,160l192,0c88.352,0 160,-71.648 160,-160l0,-192c0,-88.352 -71.648,-160 -160,-160zm112,352c0,61.76 -50.24,112 -112,112l-192,0c-61.76,0 -112,-50.24 -112,-112l0,-192c0,-61.76 50.24,-112 112,-112l192,0c61.76,0 112,50.24 112,112l0,192z" fill="#ffffff" id="svg_3"/>
   </g>
  </g>
  <g id="svg_4">
   <g id="svg_5">
    <path d="m256,128c-70.688,0 -128,57.312 -128,128s57.312,128 128,128s128,-57.312 128,-128s-57.312,-128 -128,-128zm0,208c-44.096,0 -80,-35.904 -80,-80c0,-44.128 35.904,-80 80,-80s80,35.872 80,80c0,44.096 -35.904,80 -80,80z" fill="#ffffff" id="svg_6"/>
   </g>
  </g>
  <g id="svg_7">
   <g id="svg_8">
    <circle cx="393.6" cy="118.4" fill="#ffffff" id="svg_9" r="17.056"/>
   </g>
  </g>
  <g id="svg_10"/>
  <g id="svg_11"/>
  <g id="svg_12"/>
  <g id="svg_13"/>
  <g id="svg_14"/>
  <g id="svg_15"/>
  <g id="svg_16"/>
  <g id="svg_17"/>
  <g id="svg_18"/>
  <g id="svg_19"/>
  <g id="svg_20"/>
  <g id="svg_21"/>
  <g id="svg_22"/>
  <g id="svg_23"/>
  <g id="svg_24"/>
 </g>
</svg>