<?xml version="1.0"?>
<svg width="512" height="512" xmlns="http://www.w3.org/2000/svg" xmlns:svg="http://www.w3.org/2000/svg" xmlns:se="http://svg-edit.googlecode.com">
 <g class="layer">
  <title>Layer 1</title>
  <g data-name="30-technical" id="_30-technical">
   <g data-name="linear color" id="linear_color">
    <circle cx="276" cy="188" id="svg_1" r="12"/>
    <circle cx="172" cy="188" id="svg_2" r="12"/>
    <path d="m208,244l16,0a12,12 0 0 0 3.2,-23.568l7.533,-15.066a12,12 0 0 0 -21.466,-10.732l-16,32a12,12 0 0 0 10.733,17.366z" fill="#ffffff" id="svg_3"/>
    <path d="m208,76l32,0a12,12 0 0 0 0,-24l-32,0a12,12 0 0 0 0,24z" fill="#ffffff" id="svg_4"/>
    <path d="m497.474,361.279l-12.754,-1.579l-2.754,-6.649l7.9,-10.134a12,12 0 0 0 -0.977,-15.864l-28.817,-28.817a12,12 0 0 0 -15.864,-0.977l-10.134,7.9l-6.649,-2.754l-1.578,-12.754a12,12 0 0 0 -11.91,-10.526l-40.749,0a12,12 0 0 0 -11.909,10.526l-1.579,12.757l-6.649,2.754l-10.134,-7.9a12,12 0 0 0 -15.864,0.977l-28.817,28.817a12,12 0 0 0 -0.977,15.864l7.9,10.134l-2.754,6.649l-12.754,1.578a12,12 0 0 0 -10.526,11.909l0,10.628l-55.125,48.237l-69.728,-61.008l25.176,-7.553a12,12 0 0 0 8.552,-11.494l0,-28.412c12.5,5.364 25.1,8.412 36,8.412c20.515,0 47.039,-10.792 67.572,-27.493c18.293,-14.879 30.808,-33.4 36.654,-53.728c22.386,-6.734 35.774,-39.843 35.774,-58.779c0,-8.432 -2.462,-15.149 -7.317,-19.968c-5.184,-5.143 -11.717,-7.042 -18.928,-7.718a43.8,43.8 0 0 0 10.245,-28.2l0,-56.114a76.087,76.087 0 0 0 -76,-76l-96,0a76.087,76.087 0 0 0 -76,76l0,56.114a43.8,43.8 0 0 0 10.245,28.2c-7.209,0.677 -13.745,2.576 -18.928,7.718c-4.855,4.819 -7.317,11.536 -7.317,19.968c0,18.936 13.388,52.045 35.774,58.779c5.846,20.332 18.361,38.849 36.654,53.728c2.445,1.989 4.977,3.891 7.572,5.7l0,32.86l-128.648,38.599a43.728,43.728 0 0 0 -31.352,42.144l0,72.19a12,12 0 0 0 24,0l0,-72.19a20.127,20.127 0 0 1 14.248,-19.156l84.883,-25.465l88.969,77.842a12,12 0 0 0 15.8,0l47.355,-41.431a11.992,11.992 0 0 0 10.4,10.252l12.754,1.578l2.754,6.649l-7.9,10.134a12,12 0 0 0 0.977,15.864l28.817,28.817a12,12 0 0 0 15.864,0.977l10.134,-7.9l6.649,2.754l1.578,12.754a12,12 0 0 0 11.906,10.521l40.751,0a12,12 0 0 0 11.91,-10.526l1.578,-12.754l6.649,-2.754l10.134,7.9a12,12 0 0 0 15.864,-0.977l28.817,-28.817a12,12 0 0 0 0.977,-15.864l-7.9,-10.134l2.754,-6.649l12.754,-1.578a12,12 0 0 0 10.524,-11.908l0,-40.751a12,12 0 0 0 -10.526,-11.909zm-366.24,-209.786a19.9,19.9 0 0 1 -7.208,-14.347a389.1,389.1 0 0 1 199.948,0a20.021,20.021 0 0 1 -23.787,18.6c-27.057,-5.152 -51.623,-7.728 -76.187,-7.728s-49.13,2.576 -76.187,7.728a20.042,20.042 0 0 1 -16.579,-4.253zm208.766,40.507c0,7.608 -3.523,17.455 -8,24.928l0,-28.912c3.354,0.1 6.4,0.368 7.672,1.022a9.965,9.965 0 0 1 0.328,2.962zm-164,-164l96,0a52.059,52.059 0 0 1 52,52l0,32.393a412.069,412.069 0 0 0 -200,0l0,-32.393a52.059,52.059 0 0 1 52,-52zm-67.672,161.038c1.273,-0.654 4.318,-0.921 7.672,-1.022l0,28.912c-4.477,-7.473 -8,-17.32 -8,-24.928a9.965,9.965 0 0 1 0.328,-2.962zm31.672,34.962l0,-44.078c9.529,0.953 19.211,-2.275 28.482,-3.4a12,12 0 1 0 3.518,-0.522c-0.019,0 -0.038,0 -0.057,0a344.918,344.918 0 0 1 104.114,0c-0.019,0 -0.038,0 -0.057,0a12,12 0 1 0 3.518,0.526c9.241,1.121 19.009,4.349 28.482,3.4l0,44.074c0,55.421 -58.879,84 -84,84c-38.033,-2.7 -84.35,-36.715 -84,-84zm344,179.333l-9.165,1.134a12,12 0 0 0 -9.613,7.317l-8.1,19.567a12,12 0 0 0 1.624,11.97l5.679,7.283l-13.825,13.816l-7.283,-5.679a12,12 0 0 0 -11.97,-1.624l-19.567,8.1a12,12 0 0 0 -7.317,9.613l-1.13,9.17l-19.533,0l-1.134,-9.165a12,12 0 0 0 -7.317,-9.613l-19.567,-8.1a12,12 0 0 0 -11.97,1.624l-7.283,5.679l-13.821,-13.825l5.679,-7.283a12,12 0 0 0 1.624,-11.97l-8.105,-19.567a12,12 0 0 0 -9.613,-7.317l-9.165,-1.134l0,-19.529l9.165,-1.134a12,12 0 0 0 9.613,-7.317l8.105,-19.567a12,12 0 0 0 -1.624,-11.97l-5.679,-7.283l13.816,-13.816l7.283,5.679a12,12 0 0 0 11.97,1.624l19.567,-8.105a12,12 0 0 0 7.317,-9.613l1.134,-9.165l19.538,0l1.134,9.165a12,12 0 0 0 7.317,9.613l19.567,8.105a12,12 0 0 0 11.97,-1.624l7.283,-5.679l13.816,13.816l-5.679,7.283a12,12 0 0 0 -1.624,11.97l8.1,19.567a12,12 0 0 0 9.613,7.317l9.17,1.134l0,19.533z" fill="#ffffff" id="svg_5"/>
    <path d="m393.564,344.631a48.934,48.934 0 1 0 34.6,14.332a48.613,48.613 0 0 0 -34.6,-14.332zm17.636,66.569a24.934,24.934 0 1 1 0,-35.261a24.961,24.961 0 0 1 0,35.261z" fill="#ffffff" id="svg_6"/>
   </g>
  </g>
 </g>
</svg>